<?xml version="1.0" encoding="UTF-8"?>
<svg id="Calque_2" data-name="Calque 2" xmlns="http://www.w3.org/2000/svg" viewBox="0 0 32 32">
  <defs>
    <style>
      .cls-1 {
        fill: #fff;
      }

      .cls-2 {
        fill: #1a1a1a;
      }
    </style>
  </defs>
  <g id="Calque_1-2" data-name="Calque 1">
    <g>
      <circle class="cls-2" cx="16" cy="16" r="16"/>
      <g>
        <path class="cls-1" d="M10.11,10.73c-.04.07-.12.12-.26.13-.13.38-.33.88-.52,1.32h4.27v9.24h-.82v-.62h-6.4v.69h-.79v-9.31h2.91c.21-.52.42-1.19.53-1.66l1.08.21ZM12.77,12.95h-6.4v1.88h6.4v-1.88ZM12.77,15.57h-6.4v1.86h6.4v-1.86ZM6.37,20.04h6.4v-1.87h-6.4v1.87Z"/>
        <path class="cls-1" d="M16.9,14.72c-.42.72-.87,1.37-1.34,1.93-.09-.19-.28-.56-.41-.74,1.08-1.22,2.14-3.27,2.8-5.3l.93.31c-.02.08-.12.13-.26.12-.28.79-.61,1.57-.99,2.33l.27.08c-.01.07-.08.13-.24.15v7.87h-.76v-6.75ZM20.37,19.61c0,.69.16.86,1.05.86h3.23c.8,0,.93-.38,1.05-1.88.19.14.51.27.73.32-.15,1.73-.42,2.29-1.75,2.29h-3.26c-1.4,0-1.82-.32-1.82-1.6v-3.97l-1.32.46-.25-.69,1.56-.54v-3.26l1,.07c-.01.08-.07.13-.22.15v2.77l1.95-.67v-3.23l.99.07c-.01.08-.08.13-.22.15v2.74l2.14-.73c.06-.06.08-.08.16-.14l.63.25s-.07.08-.12.12c-.01,2.13-.05,3.89-.14,4.36-.13.81-.61.92-1.97.87-.02-.22-.09-.55-.2-.74.38.02.87.02,1.02.02.22,0,.34-.05.41-.35.08-.29.12-1.66.12-3.6l-2.06.72v4.29h-.76v-4.03l-1.95.68v4.24Z"/>
      </g>
    </g>
  </g>
</svg>